<svg xmlns:x="http://ns.adobe.com/Extensibility/1.0/" xmlns:i="http://ns.adobe.com/AdobeIllustrator/10.0/" xmlns:graph="http://ns.adobe.com/Graphs/1.0/" xmlns="http://www.w3.org/2000/svg" xmlns:xlink="http://www.w3.org/1999/xlink" xmlns:a="http://ns.adobe.com/AdobeSVGViewerExtensions/3.0/" version="1.1" x="0px" y="0px" viewBox="0 0 100 125" enable-background="new 0 0 100 100" xml:space="preserve"><g><path d="M5.116,9.491h89.767c2.405,0,4.355-1.95,4.355-4.355c0-2.405-1.95-4.355-4.355-4.355H5.116   c-2.405,0-4.354,1.95-4.354,4.355C0.761,7.541,2.711,9.491,5.116,9.491z"/><path d="M5.116,54.298H50c2.404,0,4.354-1.949,4.354-4.354c0-2.406-1.95-4.355-4.354-4.355H5.116c-2.405,0-4.354,1.95-4.354,4.355   C0.761,52.349,2.711,54.298,5.116,54.298z"/><path d="M36.462,90.396H5.116c-2.405,0-4.354,1.95-4.354,4.355s1.95,4.355,4.354,4.355h31.347c2.406,0,4.355-1.95,4.355-4.355   S38.869,90.396,36.462,90.396z"/><path d="M36.462,68.104H5.116c-2.405,0-4.354,1.949-4.354,4.355c0,2.405,1.95,4.355,4.354,4.355h31.347   c2.406,0,4.355-1.95,4.355-4.355C40.818,70.054,38.869,68.104,36.462,68.104z"/><path d="M5.116,32.232h58.462c2.405,0,4.355-1.95,4.355-4.355c0-2.405-1.95-4.355-4.355-4.355H5.116   c-2.405,0-4.354,1.95-4.354,4.355C0.761,30.282,2.711,32.232,5.116,32.232z"/><path d="M97.258,48.285L78.23,35.906c-0.969-0.63-2.147-0.85-3.277-0.609c-1.13,0.239-2.119,0.917-2.748,1.885L50.239,70.945   c-0.442,0.68-0.685,1.469-0.704,2.279l-0.475,21.544c-0.033,1.508,0.715,2.924,1.979,3.747c0.719,0.467,1.546,0.704,2.376,0.704   c0.63,0,1.264-0.137,1.852-0.414l19.504-9.165c0.733-0.345,1.355-0.888,1.799-1.567l21.964-33.763   C99.846,52.294,99.274,49.597,97.258,48.285z M69.943,82.284l-12.02,5.647l0.293-13.275l18.914-29.075l11.727,7.629L69.943,82.284z   "/></g><text x="0" y="115" fill="#000000" font-size="5px" font-weight="bold" font-family="'Helvetica Neue', Helvetica, Arial-Unicode, Arial, Sans-serif">Created by Akhil Komath</text><text x="0" y="120" fill="#000000" font-size="5px" font-weight="bold" font-family="'Helvetica Neue', Helvetica, Arial-Unicode, Arial, Sans-serif">from the Noun Project</text></svg>