<svg xmlns="http://www.w3.org/2000/svg" xmlns:xlink="http://www.w3.org/1999/xlink" version="1.1" x="0px" y="0px" viewBox="0 0 120 150" style="enable-background:new 0 0 120 120;" xml:space="preserve"><g><path d="M99.4,10H27.8c-1.6,0-3,1.3-3,3v20.6h-4.2c-1.6,0-3,1.3-3,3c0,1.6,1.3,3,3,3h4.2V57h-4.2c-1.6,0-3,1.3-3,3c0,1.6,1.3,3,3,3   h4.2v17.6h-4.2c-1.6,0-3,1.3-3,3c0,1.6,1.3,3,3,3h4.2V107c0,1.6,1.3,3,3,3h71.6c1.6,0,3-1.3,3-3V13C102.3,11.3,101,10,99.4,10z    M96.4,104.1H30.8V86.5h5.4c1.6,0,3-1.3,3-3c0-1.6-1.3-3-3-3h-5.4V63h5.4c1.6,0,3-1.3,3-3c0-1.6-1.3-3-3-3h-5.4V39.4h5.4   c1.6,0,3-1.3,3-3c0-1.6-1.3-3-3-3h-5.4V15.9h65.6V104.1z"/><path d="M48.8,80.2c0,1.6,1.3,3,3,3h32c1.6,0,3-1.3,3-3c0-7-3.8-13.1-9.5-16.4C80.7,61,83,56.8,83,52c0-8.4-6.8-15.2-15.2-15.2   S52.5,43.6,52.5,52c0,4.8,2.3,9,5.8,11.8C52.6,67.1,48.8,73.2,48.8,80.2z M58.5,52c0-5.1,4.2-9.3,9.3-9.3s9.3,4.2,9.3,9.3   s-4.2,9.3-9.3,9.3S58.5,57.1,58.5,52z M55,77.2c1.3-5.7,6.5-10,12.7-10s11.4,4.3,12.7,10H55z"/></g><text x="0" y="135" fill="#000000" font-size="5px" font-weight="bold" font-family="'Helvetica Neue', Helvetica, Arial-Unicode, Arial, Sans-serif">Created by Symbolon</text><text x="0" y="140" fill="#000000" font-size="5px" font-weight="bold" font-family="'Helvetica Neue', Helvetica, Arial-Unicode, Arial, Sans-serif">from the Noun Project</text></svg>