<svg xmlns:dc="http://purl.org/dc/elements/1.1/" xmlns:cc="http://creativecommons.org/ns#" xmlns:rdf="http://www.w3.org/1999/02/22-rdf-syntax-ns#" xmlns:svg="http://www.w3.org/2000/svg" xmlns="http://www.w3.org/2000/svg" xmlns:sodipodi="http://sodipodi.sourceforge.net/DTD/sodipodi-0.dtd" xmlns:inkscape="http://www.inkscape.org/namespaces/inkscape" viewBox="0 0 8.4666665 10.583333625" version="1.1" x="0px" y="0px"><g transform="translate(0,-288.53332)"><path style="color:#000000;font-style:normal;font-variant:normal;font-weight:normal;font-stretch:normal;font-size:medium;line-height:normal;font-family:sans-serif;text-indent:0;text-align:start;text-decoration:none;text-decoration-line:none;text-decoration-style:solid;text-decoration-color:#000000;letter-spacing:normal;word-spacing:normal;text-transform:none;direction:ltr;writing-mode:lr-tb;baseline-shift:baseline;text-anchor:start;white-space:normal;clip-rule:nonzero;display:inline;overflow:visible;visibility:visible;opacity:1;isolation:auto;mix-blend-mode:normal;color-interpolation:sRGB;color-interpolation-filters:linearRGB;solid-color:#000000;solid-opacity:1;fill:#000000;fill-opacity:1;fill-rule:evenodd;stroke:none;stroke-width:1.5;stroke-linecap:round;stroke-linejoin:round;stroke-miterlimit:4;stroke-dasharray:none;stroke-dashoffset:0;stroke-opacity:1;color-rendering:auto;image-rendering:auto;shape-rendering:auto;text-rendering:auto;enable-background:accumulate" d="m 1.1244743,294.02335 c -0.25335439,0 -0.46302874,0.20969 -0.46302081,0.46303 l 0,1.05833 c -7.93e-6,0.25336 0.20966642,0.46302 0.46302081,0.46302 l 6.0833505,0 a 0.19845735,0.19845736 0 1 0 0,-0.39688 l -6.0833505,0 c -0.038862,0 -0.066146,-0.0268 -0.066146,-0.0656 l 0,-1.05833 c 0,-0.0389 0.027284,-0.0661 0.066146,-0.0661 l 0.5291667,0 0,0.85886 0.396875,-0.26355 0.396875,0.26458 0,-0.85989 4.7604338,0 a 0.19845735,0.19845736 0 1 0 0,-0.39688 z"/><path style="color:#000000;font-style:normal;font-variant:normal;font-weight:normal;font-stretch:normal;font-size:medium;line-height:normal;font-family:sans-serif;text-indent:0;text-align:start;text-decoration:none;text-decoration-line:none;text-decoration-style:solid;text-decoration-color:#000000;letter-spacing:normal;word-spacing:normal;text-transform:none;direction:ltr;writing-mode:lr-tb;baseline-shift:baseline;text-anchor:start;white-space:normal;clip-rule:nonzero;display:inline;overflow:visible;visibility:visible;opacity:1;isolation:auto;mix-blend-mode:normal;color-interpolation:sRGB;color-interpolation-filters:linearRGB;solid-color:#000000;solid-opacity:1;fill:#000000;fill-opacity:1;fill-rule:evenodd;stroke:none;stroke-width:1.5;stroke-linecap:round;stroke-linejoin:round;stroke-miterlimit:4;stroke-dasharray:none;stroke-dashoffset:0;stroke-opacity:1;color-rendering:auto;image-rendering:auto;shape-rendering:auto;text-rendering:auto;enable-background:accumulate" d="m 7.3421828,291.77646 -6.0838663,5.3e-4 a 0.19870656,0.19848472 0 1 0 0,0.39688 l 4.7609496,0 0,0.85834 0.396875,-0.26406 0.396875,0.26355 0,-0.85783 0.5291667,0 c 0.038807,0 0.066149,0.0269 0.066146,0.0656 l 0,1.0573 c 2.6e-6,0.0387 -0.027339,0.0656 -0.066146,0.0656 l -6.0838663,0 a 0.19870656,0.19848472 0 1 0 0,0.39687 l 6.0838663,0 c 0.253418,0 0.4630288,-0.20988 0.4630209,-0.46302 l 0,-1.0573 c 7.9e-6,-0.25314 -0.2096029,-0.4625 -0.4630209,-0.4625 z"/><path style="color:#000000;font-style:normal;font-variant:normal;font-weight:normal;font-stretch:normal;font-size:medium;line-height:normal;font-family:sans-serif;text-indent:0;text-align:start;text-decoration:none;text-decoration-line:none;text-decoration-style:solid;text-decoration-color:#000000;letter-spacing:normal;word-spacing:normal;text-transform:none;direction:ltr;writing-mode:lr-tb;baseline-shift:baseline;text-anchor:start;white-space:normal;clip-rule:nonzero;display:inline;overflow:visible;visibility:visible;opacity:1;isolation:auto;mix-blend-mode:normal;color-interpolation:sRGB;color-interpolation-filters:linearRGB;solid-color:#000000;solid-opacity:1;fill:#000000;fill-opacity:1;fill-rule:evenodd;stroke:none;stroke-width:1.5;stroke-linecap:round;stroke-linejoin:round;stroke-miterlimit:4;stroke-dasharray:none;stroke-dashoffset:0;stroke-opacity:1;color-rendering:auto;image-rendering:auto;shape-rendering:auto;text-rendering:auto;enable-background:accumulate" d="m 1.126175,289.52556 c -0.25335531,0 -0.46302959,0.20968 -0.46302089,0.46302 l 0,1.05834 c -8.7e-6,0.25336 0.20966558,0.46302 0.46302089,0.46302 l 6.0833499,0 a 0.19845735,0.19845736 0 1 0 0,-0.39688 l -6.0833499,0 c -0.038863,0 -0.066147,-0.0267 -0.066146,-0.0656 l 0,-1.05834 c -1.3e-6,-0.0389 0.027283,-0.0661 0.066146,-0.0661 l 6.0833499,0 a 0.19845735,0.19845736 0 1 0 0,-0.39688 z"/></g><text x="0" y="23.4666669" fill="#000000" font-size="5px" font-weight="bold" font-family="'Helvetica Neue', Helvetica, Arial-Unicode, Arial, Sans-serif">Created by anbileru adaleru</text><text x="0" y="28.4666669" fill="#000000" font-size="5px" font-weight="bold" font-family="'Helvetica Neue', Helvetica, Arial-Unicode, Arial, Sans-serif">from the Noun Project</text></svg>