<svg xmlns="http://www.w3.org/2000/svg" xmlns:xlink="http://www.w3.org/1999/xlink" version="1.1" x="0px" y="0px" viewBox="0 0 100 125" enable-background="new 0 0 100 100" xml:space="preserve"><g><path d="M68.386,80.919c-0.597,0-1.151-0.38-1.347-0.977l-3.721-11.363c-1.704,2.804-5.625,7.677-13.271,10.179   c-11.51,3.772-21.583,2.245-29.935-4.534c-8.699-7.064-12.23-17.813-9.688-29.491c2.438-11.192,12.889-17.785,13.332-18.061   c0.034-0.021,0.068-0.041,0.104-0.06c0.084-0.042,8.423-4.282,12.154-6.042c8.01-3.779,16.245-4.498,24.485-2.137   c9.819,2.814,13.976,9.966,15.136,12.403c1.253,0.284,2.863,1.192,3.586,3.397c0.717,2.193-0.103,3.849-1.024,4.815l2.519,7.697   c0.409,1.249,2.332,0.899,2.354,0.896c0.697-0.133,1.389,0.273,1.61,0.951l7.562,23.096c0.117,0.357,0.088,0.747-0.082,1.082   s-0.467,0.59-0.823,0.706l-22.511,7.369C68.681,80.896,68.531,80.919,68.386,80.919z M25.208,29.108   c-0.726,0.469-9.91,6.576-12.013,16.228C10.889,55.93,14.062,65.657,21.9,72.022c7.66,6.22,16.578,7.541,27.266,4.042   c8.241-2.697,11.548-8.414,12.379-10.132c-0.122,0.015-0.251,0.045-0.389,0.09l-5.178,1.694c-2.263,0.694-6.979,0.48-8.838-5.208   c-0.244-0.744,0.162-1.544,0.906-1.787c0.747-0.244,1.544,0.163,1.787,0.906c1.427,4.36,4.907,3.496,5.299,3.384l5.142-1.683   c2.745-0.896,4.521,0.863,5.049,2.265l3.969,12.119l19.816-6.487L82.33,50.521c-1.579-0.048-3.584-0.687-4.306-2.891l-2.818-8.613   c-0.209-0.638,0.059-1.335,0.641-1.67c0.261-0.162,1.139-0.837,0.684-2.23c-0.521-1.587-1.773-1.554-1.794-1.551   c-0.615,0.031-1.182-0.342-1.397-0.919c-0.131-0.344-3.364-8.55-13.618-11.488c-7.557-2.167-15.126-1.5-22.495,1.977   C33.699,24.797,25.975,28.719,25.208,29.108z"/></g><g><path d="M43.071,70.457c-0.679,0-1.278-0.489-1.396-1.182c-0.131-0.771,0.389-1.502,1.16-1.634   c0.087-0.015,4.293-0.778,6.562-3.319c0.521-0.585,1.417-0.638,2.001-0.114c0.584,0.521,0.636,1.417,0.114,2.001   c-2.951,3.307-7.99,4.191-8.203,4.228C43.229,70.45,43.15,70.457,43.071,70.457z"/></g><g><path d="M42.845,67.175c-0.692,0-1.298-0.509-1.4-1.214c-0.112-0.773,0.422-1.492,1.195-1.606c0.059-0.009,3.274-0.525,4.914-2.63   c0.48-0.616,1.372-0.726,1.989-0.247c0.617,0.481,0.728,1.372,0.247,1.989c-2.356,3.024-6.562,3.667-6.739,3.692   C42.981,67.17,42.913,67.175,42.845,67.175z"/></g><g><path d="M83.352,61.366c-0.228,0-0.462-0.02-0.699-0.06c-0.649-0.096-1.224-0.444-1.637-1.004c-0.99-1.339-0.713-3.578-0.647-4.014   l1.118-7.413c0.116-0.775,0.839-1.309,1.612-1.19c0.774,0.116,1.308,0.839,1.19,1.612l-1.118,7.414   c-0.095,0.654-0.056,1.484,0.076,1.814c0.325,0.026,0.442-0.067,0.493-0.104c0.322-0.237,0.501-0.844,0.525-1.026   c0.108-0.775,0.816-1.309,1.599-1.21c0.775,0.107,1.316,0.823,1.21,1.599c-0.027,0.194-0.302,1.926-1.655,2.922   C84.824,61.143,84.119,61.366,83.352,61.366z"/></g><g><path d="M69.413,58.872C69.412,58.872,69.412,58.872,69.413,58.872c-3.927,0-9.158-1.975-10.979-7.537   c-1.288-3.933,0.087-6.968,1.468-8.823c1.711-2.299,4.075-3.693,5.718-4.23c0.934-0.306,1.868-0.461,2.778-0.461   c2,0,3.236,0.748,3.371,0.834c0.277,0.176,0.485,0.443,0.587,0.755l4.563,13.939c0.091,0.276,0.094,0.574,0.01,0.853   c-1,3.304-4.443,4.218-4.59,4.255C71.548,58.719,70.504,58.872,69.413,58.872z M68.397,40.655c-0.609,0-1.248,0.107-1.896,0.319   c-1.173,0.385-3.01,1.461-4.327,3.229c-1.425,1.916-1.777,4.019-1.048,6.248c1.35,4.122,5.307,5.585,8.285,5.585h0.001   c0.795,0,1.533-0.104,2.134-0.301c0.094-0.027,1.84-0.516,2.523-1.978l-4.216-12.878C69.54,40.773,69.044,40.655,68.397,40.655z"/></g><g><path d="M57.244,39.27c-0.271,0.001-0.546-0.077-0.788-0.24c-0.65-0.436-0.824-1.316-0.388-1.966   c0.079-0.119,2.001-2.921,6.717-4.465c4.799-1.57,7.275-0.151,7.542,0.017c0.663,0.415,0.865,1.29,0.449,1.953   c-0.409,0.653-1.266,0.857-1.923,0.468c-0.09-0.046-1.764-0.862-5.187,0.256c-3.737,1.225-5.23,3.329-5.245,3.35   C58.148,39.05,57.7,39.27,57.244,39.27z"/></g><g><path d="M86.061,75.133c-0.597,0-1.151-0.379-1.347-0.977l-0.925-2.821c-0.566-1.735,0.382-3.606,2.114-4.173l0.8-0.261   c0.838-0.277,1.734-0.207,2.522,0.192s1.373,1.082,1.647,1.922l0.857,2.619c0.244,0.744-0.161,1.545-0.905,1.788   c-0.748,0.242-1.546-0.162-1.788-0.905l-0.858-2.62c-0.054-0.163-0.17-0.242-0.235-0.274c-0.065-0.033-0.194-0.08-0.359-0.028   l-0.8,0.262c-0.247,0.081-0.382,0.349-0.301,0.598l0.924,2.819c0.244,0.744-0.161,1.544-0.905,1.788   C86.355,75.109,86.207,75.133,86.061,75.133z"/></g><g><path d="M81.671,76.569c-0.597,0-1.151-0.38-1.347-0.977L79.4,72.771c-0.567-1.735,0.382-3.606,2.114-4.173l0.8-0.261   c0.838-0.277,1.736-0.206,2.522,0.193c0.787,0.399,1.372,1.082,1.646,1.923l0.857,2.617c0.244,0.744-0.161,1.545-0.905,1.788   s-1.545-0.161-1.788-0.905l-0.858-2.619c-0.051-0.155-0.156-0.236-0.235-0.276c-0.063-0.031-0.195-0.079-0.358-0.027l-0.8,0.262   c-0.247,0.081-0.382,0.349-0.301,0.597l0.923,2.82c0.244,0.744-0.162,1.545-0.905,1.788C81.966,76.546,81.816,76.569,81.671,76.569   z"/></g><g><path d="M77.283,78.006c-0.597,0-1.151-0.379-1.347-0.977l-0.925-2.821c-0.567-1.734,0.382-3.605,2.114-4.172l0.798-0.262   c0.838-0.273,1.734-0.208,2.522,0.192c0.788,0.399,1.373,1.082,1.648,1.923l0.857,2.619c0.244,0.744-0.161,1.545-0.905,1.788   c-0.746,0.242-1.545-0.162-1.788-0.905l-0.858-2.62c-0.054-0.164-0.171-0.243-0.235-0.276c-0.079-0.04-0.204-0.076-0.359-0.026   l-0.799,0.262c-0.247,0.08-0.382,0.348-0.301,0.596l0.924,2.82c0.244,0.744-0.161,1.544-0.905,1.788   C77.578,77.982,77.43,78.006,77.283,78.006z"/></g><g><path d="M72.897,79.442c-0.597,0-1.151-0.379-1.347-0.977l-0.925-2.821c-0.567-1.733,0.38-3.604,2.111-4.172l0.798-0.261   c0.832-0.275,1.731-0.208,2.521,0.192c0.79,0.399,1.375,1.082,1.65,1.922l0.857,2.619c0.244,0.744-0.161,1.545-0.905,1.788   c-0.749,0.243-1.546-0.162-1.788-0.905l-0.858-2.62c-0.054-0.162-0.171-0.242-0.236-0.275c-0.064-0.032-0.194-0.081-0.357-0.027   l-0.799,0.261c-0.25,0.082-0.382,0.345-0.3,0.597l0.925,2.82c0.244,0.744-0.161,1.544-0.905,1.788   C73.192,79.419,73.044,79.442,72.897,79.442z"/></g><g><path d="M68.509,80.879c-0.597,0-1.151-0.38-1.347-0.977l-0.924-2.823c-0.276-0.838-0.209-1.734,0.19-2.522   c0.398-0.787,1.08-1.373,1.92-1.647l0.798-0.262c0.842-0.277,1.735-0.207,2.523,0.192c0.789,0.399,1.375,1.082,1.649,1.923   l0.857,2.62c0.244,0.743-0.162,1.544-0.906,1.787c-0.747,0.243-1.544-0.163-1.787-0.906l-0.857-2.62   c-0.051-0.154-0.156-0.234-0.236-0.274c-0.065-0.033-0.2-0.08-0.36-0.028l-0.798,0.262c-0.154,0.051-0.233,0.155-0.273,0.234   c-0.04,0.078-0.077,0.205-0.026,0.359l0.924,2.824c0.244,0.743-0.162,1.544-0.905,1.787C68.804,80.855,68.654,80.879,68.509,80.879   z"/></g><g><path d="M45.44,60.474c-0.411,0-0.818-0.178-1.099-0.521c-0.495-0.605-0.405-1.499,0.201-1.994   c6.377-5.211,1.903-11.092,1.709-11.339c-0.481-0.617-0.372-1.508,0.244-1.99c0.618-0.481,1.507-0.372,1.99,0.244   c2.23,2.855,4.651,9.723-2.15,15.28C46.073,60.369,45.756,60.474,45.44,60.474z"/></g><g><path d="M12.877,82.583c-0.781,0-1.416-0.632-1.417-1.414c-0.002-0.782,0.631-1.419,1.414-1.42l76.938-0.176   c0.001,0,0.002,0,0.003,0c0.781,0,1.416,0.632,1.417,1.414c0.002,0.782-0.631,1.419-1.414,1.42L12.88,82.583   C12.879,82.583,12.878,82.583,12.877,82.583z"/></g><text x="0" y="115" fill="#000000" font-size="5px" font-weight="bold" font-family="'Helvetica Neue', Helvetica, Arial-Unicode, Arial, Sans-serif">Created by Anthony Bossard</text><text x="0" y="120" fill="#000000" font-size="5px" font-weight="bold" font-family="'Helvetica Neue', Helvetica, Arial-Unicode, Arial, Sans-serif">from the Noun Project</text></svg>