<svg xmlns="http://www.w3.org/2000/svg" data-name="Layer 1" viewBox="0 0 100 125" x="0px" y="0px"><title>Artboard 8</title><path d="M61.65,15.21V8A1.52,1.52,0,0,0,60.14,6.5H39.86A1.52,1.52,0,0,0,38.35,8v6.49a2.5,2.5,0,1,1-5,0V8A6.52,6.52,0,0,1,39.86,1.5H60.14A6.52,6.52,0,0,1,66.65,8v7.2a2.5,2.5,0,0,1-5,0ZM13.59,58.52a2.5,2.5,0,0,0-2.5,2.5V82A16.54,16.54,0,0,0,27.61,98.5H72.39A16.54,16.54,0,0,0,88.91,82V61a2.5,2.5,0,0,0-5,0V82A11.53,11.53,0,0,1,72.39,93.5H27.61A11.53,11.53,0,0,1,16.09,82V61A2.5,2.5,0,0,0,13.59,58.52ZM24.21,60a2.5,2.5,0,0,0-2.5,2.5V82a5.91,5.91,0,0,0,5.9,5.9H72.39a5.91,5.91,0,0,0,5.9-5.9V62.48a2.5,2.5,0,0,0-5,0V82a.9.9,0,0,1-.9.9H27.61a.9.9,0,0,1-.9-.9V62.48A2.5,2.5,0,0,0,24.21,60ZM44,67.53a2.5,2.5,0,0,1-2.5-2.5V48.56a2.5,2.5,0,0,1,2.5-2.5H56a2.5,2.5,0,0,1,2.5,2.5V65a2.5,2.5,0,0,1-2.5,2.5Zm2.5-5h7V51.06h-7Zm48-14.09V32.79a10.91,10.91,0,0,0-10.9-10.9H16.42a10.91,10.91,0,0,0-10.9,10.9V48.44a5.1,5.1,0,0,0,4,5,193.34,193.34,0,0,0,25.66,3.46h.18a2.5,2.5,0,0,0,.17-5,177.3,177.3,0,0,1-25-3.45V32.79a5.91,5.91,0,0,1,5.9-5.9H83.58a5.91,5.91,0,0,1,5.9,5.9l0,15.74a188.2,188.2,0,0,1-25,3.37,2.5,2.5,0,0,0,.35,5,193.41,193.41,0,0,0,25.66-3.46A5.09,5.09,0,0,0,94.48,48.44Z"/><text x="0" y="115" fill="#000000" font-size="5px" font-weight="bold" font-family="'Helvetica Neue', Helvetica, Arial-Unicode, Arial, Sans-serif">Created by Gregor Cresnar</text><text x="0" y="120" fill="#000000" font-size="5px" font-weight="bold" font-family="'Helvetica Neue', Helvetica, Arial-Unicode, Arial, Sans-serif">from the Noun Project</text></svg>