<?xml version="1.0" encoding="UTF-8"?>
<svg width="64px" height="56px" viewBox="0 0 64 56" version="1.1" xmlns="http://www.w3.org/2000/svg" xmlns:xlink="http://www.w3.org/1999/xlink">
    <!-- Generator: Sketch 42 (36781) - http://www.bohemiancoding.com/sketch -->
    <title>Shape</title>
    <desc>Created with Sketch.</desc>
    <defs></defs>
    <g id="Page-1" stroke="none" stroke-width="1" fill="none" fill-rule="evenodd">
        <path d="M61.882,18.935 C61.068,18.552 60.2,18.825 59.712,17.183 C59.222,15.541 59.982,12.365 59.982,12.365 C59.982,12.365 62.207,7.821 62.642,6.288 C63.075,4.755 63.672,3.441 62.749,1.908 C61.826,0.375 59.492,0.648 54.609,0.32 C49.726,-0.008 43.214,0.21 33.826,0.046 C24.438,-0.118 24.423,0.164 23.57,0.648 C20.966,2.126 16.897,11.05 10.44,22.492 C3.982,33.936 1.052,38.7 0.346,40.67 C-0.36,42.64 0.236,45.27 0.183,45.816 C0.129,46.363 0.129,48.389 0.453,49.922 C0.78,51.455 1.16,52.495 4.578,53.754 C7.996,55.014 12.445,55.287 23.732,55.506 C35.019,55.726 45.275,56.272 47.336,55.834 C49.398,55.396 49.669,52.878 50.321,50.688 C50.971,48.498 54.825,40.012 56.398,36.016 C57.972,32.019 63.561,20.96 63.941,20.194 C64.321,19.428 62.693,19.318 61.881,18.934 L61.882,18.935 Z M9.165,29.68 C13.723,22.37 20.52,10.216 22.432,7.26 C24.344,4.304 25.118,2.784 25.566,2.66 C26.014,2.536 38.426,2.66 44.938,2.66 C51.45,2.66 55.763,2.702 57.92,3.03 C60.077,3.36 60.403,3.524 60.077,4.51 C59.751,5.494 55.763,13.42 54.42,16.622 C53.077,19.825 52.263,21.222 52.263,21.222 C52.263,21.222 51.246,18.798 51.083,18.798 C50.92,18.798 50.188,19.168 50.188,19.496 C50.188,19.824 51.572,22.124 51.531,22.329 C51.491,22.533 50.881,24.011 50.881,24.011 C50.881,24.011 49.661,21.014 49.457,21.014 C49.254,21.014 48.562,22.124 48.602,22.246 C48.642,22.368 49.824,24.751 49.865,25.202 C49.905,25.654 49.702,26.639 49.499,26.557 C49.296,26.475 48.156,23.477 48.034,23.477 C47.912,23.477 47.342,23.97 47.261,24.297 C47.18,24.624 48.725,27.952 48.644,28.24 C48.564,28.528 47.952,30.458 47.83,30.212 C47.707,29.966 46.2,26.558 45.998,26.475 C45.795,26.393 44.858,27.295 45.021,27.585 C45.185,27.871 46.853,31.608 46.771,31.935 C46.691,32.265 46.324,34.03 45.999,33.907 C45.674,33.784 44.209,29.39 43.883,29.307 C43.557,29.224 42.54,29.801 42.743,30.335 C42.946,30.869 45.103,35.18 45.063,35.673 C45.023,36.166 44.371,37.808 44.168,37.767 C43.965,37.727 42.296,32.675 42.011,32.552 C41.726,32.429 41.034,33.004 41.075,33.332 C41.115,33.66 43.639,39.162 43.232,39.696 C42.826,40.23 42.5,40.476 42.5,40.476 C42.5,40.476 39.814,34.153 39.366,34.153 C38.918,34.153 38.226,34.605 38.349,35.015 C38.471,35.425 41.564,41.379 41.361,41.667 C41.158,41.955 40.221,42.447 40.221,42.447 C40.221,42.447 37.086,35.427 36.883,35.427 C36.68,35.427 35.825,36.287 35.866,36.617 C35.906,36.945 38.796,42.53 38.633,42.53 C38.47,42.53 36.803,42.858 36.598,42.612 C36.395,42.366 33.138,35.632 33.018,35.592 C32.895,35.55 31.838,35.919 32,36.452 C32.162,36.985 35.5,42.284 34.93,42.202 C34.36,42.12 33.138,41.792 33.138,41.792 C33.138,41.792 30.615,36.742 30.493,36.742 C30.371,36.742 29.557,36.864 29.638,37.398 C29.718,37.932 31.958,41.463 31.754,41.463 C31.55,41.463 29.354,41.176 29.312,40.929 C29.27,40.682 28.05,37.602 27.766,37.602 C27.481,37.602 26.546,37.93 26.789,38.259 C27.032,38.587 27.929,40.517 27.765,40.559 C27.602,40.599 27.195,40.722 27.032,40.639 C26.869,40.559 25.648,38.176 25.486,38.176 C25.323,38.176 24.428,38.669 24.428,38.669 C24.428,38.669 25.526,40.599 25.078,40.599 C24.63,40.599 19.258,39.737 13.52,39.901 C7.782,40.065 4.445,40.435 4.445,40.435 C3.957,40.475 3.55,40.475 3.55,40.475 C3.55,40.475 4.607,36.99 9.165,29.68 Z M49.985,44.995 C48.275,49.675 47.055,52.92 46.362,53.371 C45.669,53.822 35.822,53.988 28.782,53.659 C21.742,53.33 18.362,53.249 12.258,52.839 C6.153,52.427 4.038,51.524 3.548,50.785 C3.058,50.046 2.858,43.271 3.834,43.065 C4.177,42.995 5.664,42.695 9.816,42.532 C13.966,42.369 22.188,42.328 28.333,43.232 C34.478,44.134 36.961,44.997 39.158,44.872 C41.356,44.75 42.048,44.502 42.048,44.502 C42.048,44.502 42.536,47.706 43.025,48.732 C43.513,49.759 43.595,50.498 43.432,50.498 C43.269,50.498 33.787,50.088 24.386,50.005 C14.986,49.923 9.166,49.677 7.741,49.307 C6.318,48.937 6.073,48.897 5.829,47.624 C5.585,46.351 6.399,44.011 6.073,43.764 C5.747,43.517 4.771,43.189 4.486,43.477 C4.201,43.765 3.713,47.953 4.364,49.061 C5.015,50.169 5.056,50.661 8.964,51.031 C12.87,51.401 21.824,51.771 28.131,52.016 C34.438,52.261 40.461,52.344 41.968,52.344 C43.475,52.344 44.003,52.426 45.142,51.234 C46.282,50.044 47.91,46.102 49.62,42.654 C51.33,39.204 55.277,31.526 55.277,31.526 L55.643,31.321 C55.643,31.323 51.697,40.315 49.987,44.996 L49.985,44.995 Z M59.305,20.153 C58.938,20.687 48.845,40.437 47.38,43.64 C45.915,46.843 44.938,48.567 44.938,48.567 C44.775,48.527 43.31,43.967 43.432,43.763 C43.554,43.558 45.874,40.723 48.602,34.853 C51.33,28.983 55.112,21.508 56.172,19.25 C57.232,16.992 58.247,15.144 58.247,15.144 C58.247,15.144 58.084,17.279 58.41,18.141 C58.734,19.004 59.67,19.621 59.304,20.154 L59.305,20.153 Z M55.343,22.603 C55.017,22.767 52.277,29.145 51.87,29.913 C51.463,30.678 51.056,31.828 51.354,31.691 C51.654,31.555 52.574,30.104 53.579,28.188 C54.582,26.272 56.019,23.014 56.019,22.85 C56.019,22.685 55.487,22.53 55.342,22.603 L55.343,22.603 Z M11.063,45.98 C11.063,45.98 14.238,45.87 16.923,45.597 C19.608,45.324 24.847,45.597 25.063,45.597 C25.28,45.597 25.363,45.323 25.117,45.187 C24.871,45.051 22.267,44.611 19.067,44.474 C15.865,44.337 11.417,44.364 10.575,44.529 C9.735,44.692 9.435,45.404 9.49,45.815 C9.545,46.225 9.98,46.145 11.064,45.979 L11.063,45.98 Z M15.133,48.8 C17.087,48.718 20.316,48.58 25.607,48.252 C30.898,47.924 35.51,48.662 36.514,48.142 C37.518,47.622 37.029,46.747 36.594,46.692 C36.161,46.637 35.104,46.774 34.18,46.856 C33.258,46.938 29.025,46.664 25.688,46.719 C22.351,46.773 14.565,47.349 14.13,47.484 C12.72,47.924 13.18,48.881 15.134,48.799 L15.133,48.8 Z M8.323,38.206 C9.029,38.233 10.223,38.179 11.01,37.932 C11.797,37.686 12.15,36.81 11.824,36.618 C11.498,36.426 9.898,36.618 9.301,36.508 C8.705,36.398 9.111,35.768 9.519,35.112 C9.926,34.455 12.559,30.924 12.856,30.048 C13.156,29.172 12.096,29.254 11.608,29.364 C11.12,29.474 7.458,35.359 6.941,36.754 C6.426,38.151 7.825,38.187 8.325,38.206 L8.323,38.206 Z M51.083,6.069 C51.707,6.287 53.933,6.232 54.42,6.479 C54.908,6.725 53.687,8.889 53.525,9.463 C53.362,10.038 54.692,9.983 55.017,9.846 C55.343,9.709 56.672,5.849 56.754,5.138 C56.834,4.425 51.404,4.252 50.839,4.453 C50.377,4.616 50.459,5.848 51.082,6.067 L51.083,6.069 Z M24.683,15.567 C25.606,15.649 28.645,15.95 36.323,16.142 C44.001,16.334 46.363,16.826 47.175,16.224 C47.989,15.622 50.945,9.381 51.19,8.641 C51.434,7.901 51,7.218 48.667,6.807 C46.334,6.397 39.957,5.957 35.535,5.904 C31.113,5.849 28.315,6.134 27.885,6.424 C27.477,6.698 23.597,13.131 23.217,13.897 C22.839,14.664 23.762,15.485 24.684,15.567 L24.683,15.567 Z M25.661,13.24 C25.851,12.913 28.891,7.766 29.325,7.63 C29.685,7.515 37.709,7.766 41.805,7.875 C45.902,7.985 48.968,8.615 49.158,8.888 C49.348,9.162 47.53,12.938 47.068,13.678 C46.608,14.418 46.065,14.91 45.821,14.91 C45.577,14.91 37.601,14.445 32.988,14.253 C28.376,14.061 26.314,14.089 25.908,13.897 C25.498,13.707 25.472,13.57 25.662,13.241 L25.661,13.24 Z M31.034,13.323 C31.576,13.213 31.604,12.255 31.684,12.036 C31.766,11.816 29.541,11.844 29.324,11.816 C29.108,11.79 29.624,10.996 30.139,10.558 C30.654,10.12 29.491,9.686 28.755,10.038 C28.239,10.284 26.829,13.131 27.018,13.213 C27.208,13.296 30.491,13.433 31.034,13.323 L31.034,13.323 Z" id="Shape" fill="#FFFFFF" fill-rule="nonzero"></path>
    </g>
</svg>