<?xml version="1.0" encoding="UTF-8"?>
<svg width="64px" height="53px" viewBox="0 0 64 53" version="1.1" xmlns="http://www.w3.org/2000/svg" xmlns:xlink="http://www.w3.org/1999/xlink">
    <!-- Generator: Sketch 42 (36781) - http://www.bohemiancoding.com/sketch -->
    <title>Shape</title>
    <desc>Created with Sketch.</desc>
    <defs></defs>
    <g id="Page-1" stroke="none" stroke-width="1" fill="none" fill-rule="evenodd">
        <path d="M62.468,11.868 C62.468,11.868 63.328,10.395 63.425,9.54 C63.521,8.685 63.521,7.687 63.09,7.307 C62.659,6.927 60.937,7.545 59.55,7.972 C58.163,8.4 55.388,8.827 55.388,8.827 C55.388,8.827 53.666,3.744 50.891,1.747 C48.116,-0.25 44.434,-0.295 41.325,0.417 C38.215,1.131 34.388,3.127 32.618,5.217 C30.848,7.307 29.318,11.487 28.791,13.15 C28.264,14.813 27.211,17.71 26.015,17.948 C24.819,18.186 22.57,17.33 20.657,16.143 C18.743,14.955 13.767,10.917 11.28,8.637 C8.793,6.357 5.25,2.414 4.1,2.652 C2.953,2.89 1.613,7.022 1.613,9.968 C1.613,12.914 4.243,15.764 4.243,15.764 C3.191,19.612 3.813,22.32 4.818,24.314 C5.823,26.308 8.023,27.641 8.023,27.641 C7.736,28.971 7.879,30.589 8.358,32.014 C8.836,33.439 11.324,35.244 11.324,35.244 C11.324,35.244 9.841,36.434 7.497,37.098 C5.153,37.763 0.704,37.05 0.225,37.146 C-0.253,37.241 0.177,43.179 0.177,44.036 C0.177,44.89 0.799,45.556 1.564,46.126 C2.329,46.696 8.501,49.783 17.16,52.016 C25.82,54.249 32.613,52.301 37.78,50.068 C42.947,47.835 48.497,40.994 52.085,35.483 C55.673,29.973 58.065,22.039 58.065,22.039 C58.065,22.039 59.405,21.326 61.318,19.901 C63.232,18.476 63.948,16.053 63.998,14.581 C64.048,13.106 62.468,11.871 62.468,11.871 L62.468,11.869 L62.468,11.868 Z M58.162,15.051 C58.736,15.051 61.176,13.675 61.462,13.911 C61.75,14.151 60.745,16.001 58.975,17.049 C57.205,18.094 55.865,18.617 55.53,18.522 C55.195,18.428 53.975,16.052 53.76,16.088 C53.545,16.124 52.97,16.588 53.114,16.908 C53.258,17.228 54.657,19.081 54.514,19.368 C54.369,19.652 54.298,19.795 54.082,19.616 C53.866,19.437 52.54,16.62 52.18,16.55 C51.82,16.478 51.32,17.262 51.534,17.618 C51.749,17.974 53.507,20.255 53.472,20.611 C53.437,20.967 53.042,22.608 52.898,22.359 C52.754,22.109 50.566,18.083 50.35,18.119 C50.135,18.155 49.632,19.081 49.74,19.366 C49.848,19.651 52.395,23.356 52.395,23.676 C52.395,23.998 51.642,25.601 51.39,25.316 C51.14,25.031 48.914,20.292 48.7,20.292 C48.484,20.292 47.874,21.077 47.91,21.292 C47.946,21.505 50.78,26.244 50.852,26.602 C50.924,26.956 50.242,28.987 49.992,28.845 C49.74,28.702 47.442,22.965 47.156,22.93 C46.869,22.894 46.438,23.75 46.546,24.106 C46.654,24.462 49.346,29.558 49.381,29.986 C49.419,30.413 48.951,31.161 48.809,31.054 C48.665,30.948 45.759,23.786 45.509,23.822 C45.257,23.858 44.826,24.57 45.077,25.39 C45.327,26.21 48.27,31.554 48.307,31.982 C48.342,32.41 47.587,33.407 47.481,33.229 C47.371,33.051 44.287,26.245 44.001,26.317 C43.713,26.387 43.318,27.457 43.569,27.885 C43.819,28.315 46.979,33.835 46.979,34.015 C46.979,34.195 46.153,35.475 45.937,35.369 C45.722,35.262 43.067,28.955 42.779,28.991 C42.492,29.026 41.954,29.667 42.277,30.381 C42.6,31.095 45.399,35.831 45.291,36.151 C45.183,36.471 44.431,37.541 44.286,37.291 C44.142,37.041 41.308,30.591 40.986,30.591 C40.664,30.591 39.873,31.306 40.16,31.876 C40.445,32.446 43.64,38.076 43.495,38.218 C43.351,38.361 42.239,39.821 42.06,39.715 C41.882,39.609 38.832,33.089 38.51,33.195 C38.186,33.303 37.72,33.802 37.97,34.265 C38.222,34.728 41.38,40.251 41.308,40.429 C41.236,40.607 40.448,41.319 40.232,41.069 C40.017,40.821 37.074,34.977 36.752,34.977 C36.428,34.977 35.746,35.903 35.962,36.26 C36.177,36.615 39.622,41.924 39.478,42.174 C39.334,42.424 38.258,43.35 38.115,43.172 C37.971,42.994 35.315,37.614 34.778,37.649 C34.24,37.684 33.845,38.503 34.096,38.789 C34.346,39.073 37.038,43.599 37.038,43.599 C37.038,43.599 35.746,44.382 35.531,44.132 C35.318,43.882 33.129,38.929 32.914,38.929 C32.699,38.929 31.766,39.499 32.16,40.069 C32.554,40.639 34.742,44.416 34.527,44.594 C34.312,44.772 33.63,45.094 33.415,44.844 C33.2,44.594 30.975,39.641 30.76,39.641 C30.545,39.641 29.683,39.996 29.898,40.353 C30.113,40.71 32.41,45.341 32.302,45.413 C32.194,45.483 30.759,45.913 30.58,45.733 C30.4,45.556 28.463,41.423 28.14,41.423 C27.817,41.423 27.494,41.923 27.566,42.171 C27.638,42.421 29.683,45.984 29.576,46.055 C29.466,46.125 28.068,46.34 27.924,46.233 C27.78,46.126 25.951,41.85 25.664,41.779 C25.377,41.708 24.73,42.279 24.874,42.669 C25.018,43.062 26.668,46.233 26.489,46.304 C26.309,46.374 25.089,46.447 24.909,46.197 C24.729,45.947 23.259,42.491 22.935,42.42 C22.612,42.35 22.038,42.527 22.253,43.06 C22.468,43.593 24.155,46.624 23.903,46.624 C23.651,46.624 22.289,46.624 22.146,46.517 C22.002,46.41 20.531,42.883 20.28,42.811 C20.03,42.741 19.205,42.669 19.348,43.131 C19.491,43.596 21.068,46.304 20.782,46.304 C20.496,46.304 19.024,46.019 18.772,45.77 C18.522,45.52 17.194,42.277 16.907,42.242 C16.619,42.207 16.009,42.528 16.081,42.956 C16.153,43.384 17.446,45.7 17.121,45.628 C16.801,45.558 15.329,45.308 15.291,45.128 C15.257,44.951 13.821,41.958 13.571,41.815 C13.321,41.672 12.459,41.851 12.674,42.243 C12.889,42.636 13.822,44.631 13.679,44.631 C13.536,44.631 10.164,43.634 7.365,42.209 C4.566,40.784 2.055,38.575 2.377,38.503 C2.699,38.431 6.324,38.716 8.8,37.789 C11.276,36.863 13.752,35.901 13.895,35.615 C14.039,35.33 13.608,34.689 13.5,34.653 C13.393,34.617 10.38,33.691 9.733,31.517 C9.087,29.344 9.589,26.992 9.195,26.707 C8.8,26.422 6.791,25.567 5.785,22.467 C4.779,19.367 5.895,15.163 5.678,14.877 C5.463,14.593 5.116,14.011 4.768,14.107 C4.408,14.205 3.238,11.777 3.19,9.497 C3.142,7.217 4.147,4.177 4.386,4.177 C4.626,4.177 11.036,10.353 14.433,13.204 C17.83,16.055 21.8,19 24.145,19.38 C26.489,19.76 27.445,19.855 28.545,17.622 C29.645,15.388 30.842,9.925 32.517,7.407 C34.191,4.889 37.637,2.039 42.085,1.327 C46.533,0.615 49.883,1.849 51.653,4.319 C53.423,6.789 53.519,10.019 53.949,10.304 C54.379,10.589 56.291,10.494 58.589,9.686 C60.884,8.878 61.699,8.688 61.841,8.688 C61.985,8.688 61.315,10.16 59.831,11.395 C58.349,12.63 57.296,13.485 57.296,14.055 C57.296,14.625 57.586,15.051 58.16,15.051 L58.162,15.049 L58.162,15.051 Z M6.11,10.884 C5.428,10.35 5.715,9.067 5.895,8.14 C6.075,7.213 4.603,7.426 4.352,8.46 C4.102,9.493 4.388,10.92 5.212,11.63 C6.038,12.344 6.812,12.3 7.042,12.13 C7.33,11.917 6.792,11.418 6.11,10.883 L6.11,10.884 Z M26.24,21.039 C25.702,20.969 24.374,21.679 22.975,20.969 C21.575,20.255 20.212,18.581 19.602,18.795 C19.174,18.945 18.742,19.508 19.782,20.47 C20.822,21.432 22.759,22.25 24.338,22.25 C25.917,22.25 26.778,21.11 26.24,21.038 L26.24,21.039 Z M36.07,8.462 C35.712,8.356 34.205,9.352 33.488,10.602 C32.77,11.848 31.694,14.235 32.518,14.699 C33.072,15.009 33.344,14.629 33.775,13.274 C34.205,11.921 35.031,10.354 35.497,9.784 C35.964,9.212 36.43,8.57 36.071,8.464 L36.07,8.462 Z" id="Shape" fill="#FFFFFF" fill-rule="nonzero"></path>
    </g>
</svg>