<svg xmlns="http://www.w3.org/2000/svg" xmlns:xlink="http://www.w3.org/1999/xlink" version="1.1" x="0px" y="0px" viewBox="0 0 512 640" enable-background="new 0 0 512 512" xml:space="preserve"><g><g><path d="M73.2,402.7h7.9c7.8,0,14.1-6.3,14.1-14.1c0-7.8-6.3-14.1-14.1-14.1h-7.9c-7.8,0-14.1,6.3-14.1,14.1    C59.1,396.3,65.4,402.7,73.2,402.7z"/><path d="M128.9,402.7h7.9c7.8,0,14.1-6.3,14.1-14.1c0-7.8-6.3-14.1-14.1-14.1h-7.9c-7.8,0-14.1,6.3-14.1,14.1    C114.8,396.3,121.1,402.7,128.9,402.7z"/><path d="M383.1,374.4h-7.9c-7.8,0-14.1,6.3-14.1,14.1c0,7.8,6.3,14.1,14.1,14.1h7.9c7.8,0,14.1-6.3,14.1-14.1    C397.2,380.7,390.9,374.4,383.1,374.4z"/><path d="M438.8,374.4h-7.9c-7.8,0-14.1,6.3-14.1,14.1c0,7.8,6.3,14.1,14.1,14.1h7.9c7.8,0,14.1-6.3,14.1-14.1    C452.9,380.7,446.6,374.4,438.8,374.4z"/><path d="M469.2,309.7h-48.1v-43.6c0-7.8-6.3-14.1-14.1-14.1H270.1v-77.9l1.2-0.8h53.5c24.1,0,43.6-19.5,43.6-43.6V45.6    c0-24.1-19.5-43.6-43.6-43.6H187.2c-24.1,0-43.6,19.5-43.6,43.6v84.2c0,21.7,15.9,39.7,36.7,43v33.6c0,11.2,12.4,17.9,21.8,11.8    l39.8-25.8v59.7H105c-7.8,0-14.1,6.3-14.1,14.1v43.6H42.8C20.3,309.7,2,328,2,350.5v76.1c0,19.9,14.3,36.5,33.2,40.1v29.2    c0,11.2,12.4,17.9,21.8,11.8l62.3-40.4h48c22.5,0,40.8-18.3,40.8-40.8v-76.1c0-22.5-18.2-40.8-40.8-40.8h-48.1v-29.4h273.8v29.4    h-48.1c-22.5,0-40.8,18.3-40.8,40.8v76.1c0,19.9,14.3,36.5,33.2,40.1v29.2c0,11.2,12.4,17.9,21.8,11.8l62.3-40.4h48    c22.5,0,40.8-18.3,40.8-40.8v-76.1C510,328,491.7,309.7,469.2,309.7z M167.2,337.9c6.9,0,12.5,5.6,12.5,12.5v76.1    c0,6.9-5.6,12.5-12.5,12.5h-52.2c-2.7,0-5.4,0.8-7.7,2.3l-44,28.5v-16.7c0-7.8-6.3-14.1-14.1-14.1h-6.5c-6.9,0-12.5-5.6-12.5-12.5    v-76.1c0-6.9,5.6-12.5,12.5-12.5H167.2z M259.5,147.4l-51,33v-21.2c0-7.8-6.3-14.1-14.1-14.1h-7.2c-8.5,0-15.4-6.9-15.4-15.4V45.6    c0-8.5,6.9-15.4,15.4-15.4h137.7c8.5,0,15.4,6.9,15.4,15.4v84.2c0,8.5-6.9,15.4-15.4,15.4h-57.7    C264.4,145.1,261.7,145.9,259.5,147.4z M481.8,426.6c0,6.9-5.6,12.5-12.5,12.5h-52.2c-2.7,0-5.4,0.8-7.7,2.3l-44,28.5v-16.7    c0-7.8-6.3-14.1-14.1-14.1h-6.5c-6.9,0-12.5-5.6-12.5-12.5v-76.1c0-6.9,5.6-12.5,12.5-12.5h124.5c6.9,0,12.5,5.6,12.5,12.5V426.6z    "/><path d="M229.6,73.6h-8.7c-7.8,0-14.1,6.3-14.1,14.1s6.3,14.1,14.1,14.1h8.7c7.8,0,14.1-6.3,14.1-14.1S237.3,73.6,229.6,73.6z"/><path d="M291.1,73.6h-8.7c-7.8,0-14.1,6.3-14.1,14.1s6.3,14.1,14.1,14.1h8.7c7.8,0,14.1-6.3,14.1-14.1S298.9,73.6,291.1,73.6z"/></g></g><text x="0" y="527" fill="#000000" font-size="5px" font-weight="bold" font-family="'Helvetica Neue', Helvetica, Arial-Unicode, Arial, Sans-serif">Created by Icon Fair</text><text x="0" y="532" fill="#000000" font-size="5px" font-weight="bold" font-family="'Helvetica Neue', Helvetica, Arial-Unicode, Arial, Sans-serif">from the Noun Project</text></svg>